# Blender v2.91.0 OBJ File: 'finalscene.blend'
# www.blender.org
mtllib scene.mtl
o Plane
v -123.837219 0.000000 152.494217
v 123.837219 0.000000 152.494217
v -123.837219 0.000000 -152.494217
v 123.837219 0.000000 -152.494217
v -123.837219 93.432045 152.494217
v 123.837219 93.432045 152.494217
v -123.837219 93.432045 -152.494217
v 123.837219 93.432045 -152.494217
v -133.172653 0.000000 -152.494217
v -133.172653 93.432045 -152.494217
v 132.122665 0.000000 -152.494217
v 132.122665 93.432045 -152.494217
v -123.837219 -7.212795 -152.494217
v 123.837219 -7.212795 -152.494217
v -123.837219 99.744576 -152.494217
v 123.837219 99.744576 -152.494217
v -123.837219 0.000000 0.000000
v -123.837219 93.432045 0.000000
v -123.837219 46.716022 -152.494217
v -123.837219 46.716022 152.494217
v -123.837219 46.716022 0.000000
v -123.837219 0.000000 76.247108
v -123.837219 93.432045 76.247108
v -123.837219 23.358011 -152.494217
v -123.837219 23.358011 152.494217
v -123.837219 0.000000 -76.247108
v -123.837219 93.432045 -76.247108
v -123.837219 70.074036 -152.494217
v -123.837219 70.074036 152.494217
v -123.837219 70.074036 0.000000
v -123.837219 23.358011 0.000000
v -123.837219 46.716022 76.247108
v -123.837219 46.716022 -76.247108
v -123.837219 23.358011 -76.247108
v -123.837219 23.358011 76.247108
v -123.837219 70.074036 76.247108
v -123.837219 70.074036 -76.247108
v -123.837219 0.000000 114.370667
v -123.837219 93.432045 114.370667
v -123.837219 11.679006 -152.494217
v -123.837219 11.679006 152.494217
v -123.837219 0.000000 -38.123554
v -123.837219 93.432045 -38.123554
v -123.837219 58.395035 -152.494217
v -123.837219 58.395035 152.494217
v -123.837219 81.753044 0.000000
v -123.837219 35.037018 0.000000
v -123.837219 46.716022 114.370667
v -123.837219 46.716022 -38.123554
v -123.837219 0.000000 38.123554
v -123.837219 93.432045 38.123554
v -123.837219 35.037018 -152.494217
v -123.837219 35.037018 152.494217
v -123.837219 0.000000 -114.370667
v -123.837219 93.432045 -114.370667
v -123.837219 81.753044 -152.494217
v -123.837219 81.753044 152.494217
v -123.837219 58.395035 0.000000
v -123.837219 11.679006 0.000000
v -123.837219 46.716022 38.123554
v -123.837219 46.716022 -114.370667
v -123.837219 35.037018 -76.247108
v -123.837219 11.679006 -76.247108
v -123.837219 23.358011 -38.123554
v -123.837219 23.358011 -114.370667
v -123.837219 35.037018 76.247108
v -123.837219 11.679006 76.247108
v -123.837219 23.358011 114.370667
v -123.837219 23.358011 38.123554
v -123.837219 81.753044 76.247108
v -123.837219 70.074036 114.370667
v -123.837219 70.074036 38.123554
v -123.837219 81.753044 -76.247108
v -123.837219 58.395035 -76.247108
v -123.837219 70.074036 -38.123554
v -123.837219 70.074036 -114.370667
v -123.837219 58.395035 -114.370667
v -123.837219 58.395035 -38.123554
v -123.837219 81.753044 -38.123554
v 123.837219 0.000000 -152.494217
v -123.837219 58.395035 114.370667
v -123.837219 81.753044 114.370667
v -123.837219 11.679006 38.123554
v -123.837219 11.679006 114.370667
v -123.837219 35.037018 114.370667
v -123.837219 11.679006 -114.370667
v -123.837219 11.679006 -38.123554
v -123.837219 35.037018 -38.123554
v -123.837219 35.037018 -114.370667
v -123.837219 35.037018 38.123554
v -123.837219 81.753044 38.123554
v -123.837219 81.753044 -114.370667
v -139.157959 46.716022 38.123554
v -139.157959 46.716022 76.247108
v -139.157959 70.074036 76.247108
v -139.157959 70.074036 38.123554
v -139.157959 46.716022 114.370667
v -139.157959 70.074036 114.370667
v 123.837219 93.432045 152.494217
v -139.157959 58.395035 114.370667
v -139.312836 58.395035 0.000000
v -139.312836 70.074036 0.000000
v -139.312836 46.716022 0.000000
v -139.312836 46.716022 38.123554
v -139.312836 70.074036 38.123554
v 123.837219 0.000000 152.494217
v 123.837219 93.432045 -152.494217
v 123.837219 46.716022 152.494217
v 123.837219 46.716022 -152.494217
v 123.837219 93.432045 0.000000
v 123.837219 0.000000 0.000000
v 123.837219 46.716022 0.000000
v 123.837219 70.074036 152.494217
v 123.837219 23.358011 152.494217
v 123.837219 70.074036 -152.494217
v 123.837219 93.432045 -76.247108
v 123.837219 0.000000 -76.247108
v 123.837219 23.358011 -152.494217
v 123.837219 93.432045 76.247108
v 123.837219 0.000000 76.247108
v 123.837219 70.074036 0.000000
v 123.837219 23.358011 0.000000
v 123.837219 46.716022 -76.247108
v 123.837219 46.716022 76.247108
v 123.837219 23.358011 76.247108
v 123.837219 70.074036 76.247108
v 123.837219 70.074036 -76.247108
v 123.837219 23.358011 -76.247108
v 123.837219 81.753044 152.494217
v 123.837219 35.037018 152.494217
v 123.837219 81.753044 -152.494217
v 123.837219 93.432045 -114.370667
v 123.837219 0.000000 -114.370667
v 123.837219 35.037018 -152.494217
v 123.837219 93.432045 38.123554
v 123.837219 0.000000 38.123554
v 123.837219 81.753044 0.000000
v 123.837219 35.037018 0.000000
v 123.837219 46.716022 -114.370667
v 123.837219 46.716022 38.123554
v 123.837219 58.395035 152.494217
v 123.837219 11.679006 152.494217
v 123.837219 58.395035 -152.494217
v 123.837219 93.432045 -38.123554
v 123.837219 0.000000 -38.123554
v 123.837219 11.679006 -152.494217
v 123.837219 93.432045 114.370667
v 123.837219 0.000000 114.370667
v 123.837219 58.395035 0.000000
v 123.837219 11.679006 0.000000
v 123.837219 46.716022 -38.123554
v 123.837219 46.716022 114.370667
v 123.837219 35.037018 76.247108
v 123.837219 11.679006 76.247108
v 123.837219 23.358011 38.123554
v 123.837219 23.358011 114.370667
v 123.837219 81.753044 76.247108
v 123.837219 70.074036 38.123554
v 123.837219 70.074036 114.370667
v 123.837219 81.753044 -76.247108
v 123.837219 58.395035 -76.247108
v 123.837219 70.074036 -114.370667
v 123.837219 70.074036 -38.123554
v 123.837219 35.037018 -76.247108
v 123.837219 11.679006 -76.247108
v 123.837219 23.358011 -114.370667
v 123.837219 23.358011 -38.123554
v 123.837219 11.679006 -38.123554
v 123.837219 11.679006 -114.370667
v 123.837219 35.037018 -114.370667
v 123.837219 58.395035 -38.123554
v 123.837219 58.395035 -114.370667
v 123.837219 81.753044 -114.370667
v 123.837219 58.395035 114.370667
v 123.837219 81.753044 38.123554
v 123.837219 11.679006 114.370667
v 123.837219 11.679006 38.123554
v 123.837219 35.037018 38.123554
v 123.837219 35.037018 114.370667
v 123.837219 81.753044 114.370667
v 123.837219 81.753044 -38.123554
v 123.837219 35.037018 -38.123554
v 137.397095 46.716022 38.123554
v 137.397095 46.716022 0.000000
v 137.397095 58.395035 0.000000
v 137.397095 70.074036 0.000000
v 137.397095 46.716022 114.370667
v 137.397095 46.716022 76.247108
v 137.397095 70.074036 76.247108
v 137.397095 70.074036 38.123554
v 137.397095 70.074036 114.370667
v 137.397095 58.395035 114.370667
v -140.460510 89.566330 -173.380051
v 133.265488 89.566330 -173.380051
v -140.460510 89.566330 152.168716
v 133.265488 89.566330 152.168716
vt 0.687418 0.935175
vt 0.687418 0.467587
vt 0.511027 0.467587
vt 0.511027 0.935175
vt 0.533076 0.935175
vt 0.555124 0.935175
vt 0.577173 0.935175
vt 0.599222 0.935175
vt 0.621271 0.935175
vt 0.643320 0.935175
vt 0.665369 0.935175
vt 0.000000 0.516770
vt 0.000000 0.984358
vt 0.000000 0.984358
vt 0.000000 0.925909
vt 0.000000 0.867461
vt 0.000000 0.809013
vt 0.000000 0.750564
vt 0.000000 0.692116
vt 0.000000 0.633667
vt 0.000000 0.575219
vt 0.000000 0.516770
vt 0.723084 0.543660
vt 0.723084 0.485212
vt 0.701035 0.485212
vt 0.701035 0.543660
vt 0.745133 0.485212
vt 0.767182 0.485212
vt 0.789231 0.485212
vt 0.811280 0.485212
vt 0.833329 0.485212
vt 0.855378 0.485212
vt 0.877427 0.485212
vt 0.877427 0.467587
vt 0.701035 0.467587
vt 0.176391 0.984358
vt 0.000000 1.000000
vt 0.176391 1.000000
vt 0.701035 0.935175
vt 0.701035 0.467587
vt 0.499109 0.467587
vt 0.499109 0.935175
vt 0.723084 0.777454
vt 0.723084 0.719006
vt 0.701035 0.719006
vt 0.701035 0.777454
vt 0.811280 0.777454
vt 0.811280 0.719006
vt 0.789231 0.719006
vt 0.789231 0.777454
vt 0.811280 0.543660
vt 0.789231 0.543660
vt 0.811280 0.660557
vt 0.811280 0.602109
vt 0.789231 0.602109
vt 0.789231 0.660557
vt 0.855378 0.660557
vt 0.855378 0.602109
vt 0.833329 0.602109
vt 0.833329 0.660557
vt 0.855378 0.543660
vt 0.833329 0.543660
vt 0.811280 0.894351
vt 0.811280 0.835903
vt 0.789231 0.835903
vt 0.789231 0.894351
vt 0.855378 0.894351
vt 0.855378 0.835903
vt 0.833329 0.835903
vt 0.833329 0.894351
vt 0.855378 0.777454
vt 0.855378 0.719006
vt 0.833329 0.719006
vt 0.833329 0.777454
vt 0.723084 0.894351
vt 0.723084 0.835903
vt 0.701035 0.835903
vt 0.701035 0.894351
vt 0.402014 0.538819
vt 0.402014 0.516770
vt 0.373089 0.516770
vt 0.373089 0.538819
vt 0.343873 0.538819
vt 0.343873 0.560868
vt 0.373089 0.560868
vt 0.373089 0.538819
vt 0.723084 0.660557
vt 0.723084 0.602109
vt 0.701035 0.602109
vt 0.701035 0.660557
vt 0.767182 0.660557
vt 0.767182 0.602109
vt 0.745133 0.602109
vt 0.745133 0.660557
vt 0.767182 0.543660
vt 0.745133 0.543660
vt 0.767182 0.719006
vt 0.745133 0.719006
vt 0.256515 0.575219
vt 0.256515 0.516770
vt 0.227591 0.516770
vt 0.227591 0.575219
vt 0.256515 0.516770
vt 0.256515 0.575219
vt 0.285439 0.575219
vt 0.285439 0.516770
vt 0.176391 0.984358
vt 0.154342 0.984358
vt 0.132294 0.984358
vt 0.110245 0.984358
vt 0.088196 0.984358
vt 0.066147 0.984358
vt 0.044098 0.984358
vt 0.022049 0.984358
vt 0.767182 0.952799
vt 0.767182 0.894351
vt 0.745133 0.894351
vt 0.745133 0.952799
vt 0.789231 0.952799
vt 0.110245 0.809013
vt 0.110245 0.750564
vt 0.088196 0.750564
vt 0.088196 0.809013
vt 0.723084 0.952799
vt 0.701035 0.952799
vt 0.745133 0.835903
vt 0.877427 0.835903
vt 0.877427 0.777454
vt 0.877427 0.719006
vt 0.855378 0.952799
vt 0.833329 0.952799
vt 0.877427 0.952799
vt 0.877427 0.894351
vt 0.811280 0.952799
vt 0.877427 0.602109
vt 0.877427 0.543660
vt 0.877427 0.660557
vt 0.745133 0.777454
vt 0.022049 0.809013
vt 0.022049 0.750564
vt 0.402014 0.560868
vt 0.373089 0.560868
vt 0.256515 0.633667
vt 0.285439 0.633667
vt 0.256515 0.633667
vt 0.227591 0.633667
vt 0.201991 0.516770
vt 0.201991 0.516770
vt 0.201991 0.516770
vt 0.201991 0.516770
vt 0.201991 0.516770
vt 0.201991 0.516770
vt 0.201991 0.516770
vt 0.201991 0.516770
vt 0.201991 0.516770
vt 0.201991 0.516770
vt 0.201991 0.516770
vt 0.285440 0.516770
vt 0.285440 0.575219
vt 0.314656 0.575219
vt 0.314656 0.516770
vt 0.343873 0.575219
vt 0.343873 0.516770
vt 0.314656 0.516770
vt 0.314656 0.575219
vt 0.022049 0.575219
vt 0.022049 0.516770
vt 0.373089 0.516770
vt 0.110245 0.575219
vt 0.110245 0.516770
vt 0.088196 0.516770
vt 0.088196 0.575219
vt 0.110245 0.692116
vt 0.110245 0.633667
vt 0.088196 0.633667
vt 0.088196 0.692116
vt 0.154342 0.692116
vt 0.154342 0.633667
vt 0.132294 0.633667
vt 0.132294 0.692116
vt 0.154342 0.575219
vt 0.154342 0.516770
vt 0.132294 0.516770
vt 0.132294 0.575219
vt 0.022049 0.692116
vt 0.022049 0.633667
vt 0.402014 0.516770
vt 0.402014 0.538819
vt 0.427613 0.538819
vt 0.427613 0.516770
vt 0.066147 0.575219
vt 0.066147 0.516770
vt 0.044098 0.516770
vt 0.044098 0.575219
vt 0.022049 0.925909
vt 0.022049 0.867461
vt 0.066147 0.925909
vt 0.066147 0.867461
vt 0.044098 0.867461
vt 0.044098 0.925909
vt 0.066147 0.809013
vt 0.066147 0.750564
vt 0.044098 0.750564
vt 0.044098 0.809013
vt 0.110245 0.925909
vt 0.110245 0.867461
vt 0.088196 0.867461
vt 0.088196 0.925909
vt 0.154342 0.925909
vt 0.154342 0.867461
vt 0.132294 0.867461
vt 0.132294 0.925909
vt 0.154342 0.809013
vt 0.154342 0.750564
vt 0.132294 0.750564
vt 0.132294 0.809013
vt 0.176391 0.867461
vt 0.176391 0.809013
vt 0.176391 0.750564
vt 0.176391 0.925909
vt 0.201991 0.575219
vt 0.201991 0.516770
vt 0.176391 0.516770
vt 0.176391 0.575219
vt 0.201991 0.633667
vt 0.201991 0.692116
vt 0.227591 0.692116
vt 0.227591 0.633667
vt 0.453213 0.538819
vt 0.453213 0.516770
vt 0.427613 0.516770
vt 0.427613 0.538819
vt 0.201991 0.633667
vt 0.176391 0.633667
vt 0.402014 0.560868
vt 0.427613 0.560868
vt 0.044098 0.692116
vt 0.044098 0.633667
vt 0.176391 0.633667
vt 0.176391 0.575219
vt 0.176391 0.516770
vt 0.176391 0.692116
vt 0.453213 0.560868
vt 0.427613 0.560868
vt 0.201991 0.575219
vt 0.227591 0.575219
vt 0.201991 0.692116
vt 0.176391 0.692116
vt 0.201991 0.516770
vt 0.227591 0.516770
vt 0.499109 0.467587
vt 0.966697 0.467587
vt 0.966697 0.000000
vt 0.499109 0.000000
vt 0.499109 0.058448
vt 0.499109 0.116897
vt 0.499109 0.175345
vt 0.499109 0.233794
vt 0.499109 0.292242
vt 0.499109 0.350691
vt 0.499109 0.409139
vt 0.201991 0.516770
vt 0.201991 0.516770
vt 0.201991 0.516770
vt 0.201991 0.516770
vt 0.201991 0.516770
vt 0.201991 0.516770
vt 0.201991 0.516770
vt 0.201991 0.516770
vt 0.201991 0.516770
vt 0.499109 0.516770
vt 0.499109 0.000000
vt 0.000000 0.000000
vt 0.000000 0.516770
vn -0.0000 0.0000 1.0000
vn 0.0000 -1.0000 0.0000
vn 1.0000 0.0000 0.0000
vn 0.0000 0.0000 -1.0000
vn 0.0000 1.0000 0.0000
vn -1.0000 0.0000 0.0000
usemtl brick
s off
f 3/1/1 4/2/1 8/3/1 7/4/1 56/5/1 28/6/1 44/7/1 19/8/1 52/9/1 24/10/1 40/11/1
f 6/12/2 8/13/2 107/14/2 132/15/2 116/16/2 144/17/2 110/18/2 135/19/2 119/20/2 147/21/2 99/22/2
f 92/23/3 56/24/3 7/25/3 55/26/3
f 7/25/4 56/24/4 28/27/4 44/28/4 19/29/4 52/30/4 24/31/4 40/32/4 3/33/4 9/34/4 10/35/4
f 4/36/4 8/13/4 12/37/4 11/38/4
f 4/2/1 3/1/1 13/39/1 14/40/1
f 7/4/1 8/3/1 16/41/1 15/42/1
f 91/43/3 46/44/3 18/45/3 51/46/3
f 90/47/3 47/48/3 21/49/3 60/50/3
f 89/51/3 52/30/3 19/29/3 61/52/3
f 88/53/3 62/54/3 33/55/3 49/56/3
f 87/57/3 63/58/3 34/59/3 64/60/3
f 86/61/3 40/32/3 24/31/3 65/62/3
f 85/63/3 66/64/3 32/65/3 48/66/3
f 84/67/3 67/68/3 35/69/3 68/70/3
f 83/71/3 59/72/3 31/73/3 69/74/3
f 82/75/3 70/76/3 23/77/3 39/78/3
f 81/79/4 48/80/4 97/81/4 100/82/4
f 58/83/1 30/84/1 102/85/1 101/86/1
f 79/87/3 73/88/3 27/89/3 43/90/3
f 78/91/3 74/92/3 37/93/3 75/94/3
f 77/95/3 44/28/3 28/27/3 76/96/3
f 74/92/3 77/95/3 76/96/3 37/93/3
f 33/55/3 61/52/3 77/95/3 74/92/3
f 61/52/3 19/29/3 44/28/3 77/95/3
f 58/97/3 78/91/3 75/94/3 30/98/3
f 21/49/3 49/56/3 78/91/3 58/97/3
f 49/56/3 33/55/3 74/92/3 78/91/3
f 46/44/3 79/87/3 43/90/3 18/45/3
f 30/98/3 75/94/3 79/87/3 46/44/3
f 75/94/3 37/93/3 73/88/3 79/87/3
f 32/99/5 60/100/5 93/101/5 94/102/5
f 72/103/2 36/104/2 95/105/2 96/106/2
f 8/13/6 4/36/6 80/107/6 146/108/6 118/109/6 134/110/6 109/111/6 143/112/6 115/113/6 131/114/6 107/14/6
f 45/115/3 81/116/3 71/117/3 29/118/3
f 20/119/3 48/66/3 81/116/3 45/115/3
f 182/120/6 138/121/6 112/122/6 151/123/6
f 57/124/3 82/75/3 39/78/3 5/125/3
f 29/118/3 71/117/3 82/75/3 57/124/3
f 71/117/3 36/126/3 70/76/3 82/75/3
f 67/68/3 83/71/3 69/74/3 35/69/3
f 22/127/3 50/128/3 83/71/3 67/68/3
f 50/128/3 17/129/3 59/72/3 83/71/3
f 41/130/3 84/67/3 68/70/3 25/131/3
f 1/132/3 38/133/3 84/67/3 41/130/3
f 38/133/3 22/127/3 67/68/3 84/67/3
f 53/134/3 85/63/3 48/66/3 20/119/3
f 25/131/3 68/70/3 85/63/3 53/134/3
f 68/70/3 35/69/3 66/64/3 85/63/3
f 63/58/3 86/61/3 65/62/3 34/59/3
f 26/135/3 54/136/3 86/61/3 63/58/3
f 54/136/3 3/33/3 40/32/3 86/61/3
f 59/72/3 87/57/3 64/60/3 31/73/3
f 17/129/3 42/137/3 87/57/3 59/72/3
f 42/137/3 26/135/3 63/58/3 87/57/3
f 47/48/3 88/53/3 49/56/3 21/49/3
f 31/73/3 64/60/3 88/53/3 47/48/3
f 64/60/3 34/59/3 62/54/3 88/53/3
f 62/54/3 89/51/3 61/52/3 33/55/3
f 34/59/3 65/62/3 89/51/3 62/54/3
f 65/62/3 24/31/3 52/30/3 89/51/3
f 66/64/3 90/47/3 60/50/3 32/65/3
f 35/69/3 69/74/3 90/47/3 66/64/3
f 69/74/3 31/73/3 47/48/3 90/47/3
f 70/76/3 91/43/3 51/46/3 23/77/3
f 36/126/3 72/138/3 91/43/3 70/76/3
f 72/138/3 30/98/3 46/44/3 91/43/3
f 73/88/3 92/23/3 55/26/3 27/89/3
f 37/93/3 76/96/3 92/23/3 73/88/3
f 76/96/3 28/27/3 56/24/3 92/23/3
f 181/139/6 137/140/6 110/18/6 144/17/6
f 71/141/4 81/79/4 100/82/4 98/142/4
f 36/104/2 71/143/2 98/144/2 95/105/2
f 48/145/5 32/99/5 94/102/5 97/146/5
f 2/147/3 6/148/3 99/149/3 129/150/3 113/151/3 141/152/3 108/153/3 130/154/3 114/155/3 142/156/3 106/157/3
f 30/158/2 72/159/2 105/160/2 102/161/2
f 60/162/5 21/163/5 103/164/5 104/165/5
f 180/166/6 129/167/6 99/22/6 147/21/6
f 21/163/1 58/83/1 101/86/1 103/168/1
f 179/169/6 130/170/6 108/171/6 152/172/6
f 178/173/6 153/174/6 124/175/6 140/176/6
f 177/177/6 154/178/6 125/179/6 155/180/6
f 176/181/6 142/182/6 114/183/6 156/184/6
f 175/185/6 157/186/6 119/20/6 135/19/6
f 152/187/4 174/188/4 192/189/4 187/190/4
f 174/191/6 141/192/6 113/193/6 159/194/6
f 173/195/6 160/196/6 116/16/6 132/15/6
f 172/197/6 161/198/6 127/199/6 162/200/6
f 171/201/6 149/202/6 121/203/6 163/204/6
f 170/205/6 164/206/6 123/207/6 139/208/6
f 169/209/6 165/210/6 128/211/6 166/212/6
f 168/213/6 150/214/6 122/215/6 167/216/6
f 165/210/6 168/213/6 167/216/6 128/211/6
f 117/217/6 145/218/6 168/213/6 165/210/6
f 145/218/6 111/219/6 150/214/6 168/213/6
f 146/108/6 169/209/6 166/212/6 118/109/6
f 80/107/6 133/220/6 169/209/6 146/108/6
f 133/220/6 117/217/6 165/210/6 169/209/6
f 134/110/6 170/205/6 139/208/6 109/111/6
f 118/109/6 166/212/6 170/205/6 134/110/6
f 166/212/6 128/211/6 164/206/6 170/205/6
f 161/198/6 171/201/6 163/204/6 127/199/6
f 123/207/6 151/123/6 171/201/6 161/198/6
f 151/123/6 112/122/6 149/202/6 171/201/6
f 143/112/6 172/197/6 162/200/6 115/113/6
f 109/111/6 139/208/6 172/197/6 143/112/6
f 139/208/6 123/207/6 161/198/6 172/197/6
f 131/114/6 173/195/6 132/15/6 107/14/6
f 115/113/6 162/200/6 173/195/6 131/114/6
f 162/200/6 127/199/6 160/196/6 173/195/6
f 158/221/2 121/222/2 186/223/2 190/224/2
f 124/225/5 152/226/5 187/227/5 188/228/5
f 152/172/6 108/171/6 141/192/6 174/191/6
f 149/229/1 112/230/1 184/231/1 185/232/1
f 126/233/2 158/221/2 190/224/2 189/234/2
f 174/188/4 159/235/4 191/236/4 192/189/4
f 137/140/6 175/185/6 135/19/6 110/18/6
f 121/203/6 158/237/6 175/185/6 137/140/6
f 158/237/6 126/238/6 157/186/6 175/185/6
f 154/178/6 176/181/6 156/184/6 125/179/6
f 120/239/6 148/240/6 176/181/6 154/178/6
f 148/240/6 106/241/6 142/182/6 176/181/6
f 150/214/6 177/177/6 155/180/6 122/215/6
f 111/219/6 136/242/6 177/177/6 150/214/6
f 136/242/6 120/239/6 154/178/6 177/177/6
f 138/121/6 178/173/6 140/176/6 112/122/6
f 122/215/6 155/180/6 178/173/6 138/121/6
f 155/180/6 125/179/6 153/174/6 178/173/6
f 153/174/6 179/169/6 152/172/6 124/175/6
f 125/179/6 156/184/6 179/169/6 153/174/6
f 156/184/6 114/183/6 130/170/6 179/169/6
f 157/186/6 180/166/6 147/21/6 119/20/6
f 126/238/6 159/194/6 180/166/6 157/186/6
f 159/194/6 113/193/6 129/167/6 180/166/6
f 160/196/6 181/139/6 144/17/6 116/16/6
f 127/199/6 163/204/6 181/139/6 160/196/6
f 163/204/6 121/203/6 137/140/6 181/139/6
f 164/206/6 182/120/6 151/123/6 123/207/6
f 128/211/6 167/216/6 182/120/6 164/206/6
f 167/216/6 122/215/6 138/121/6 182/120/6
f 121/243/1 149/229/1 185/232/1 186/244/1
f 140/245/5 124/225/5 188/228/5 183/246/5
f 159/247/2 126/233/2 189/234/2 191/248/2
f 112/249/5 140/245/5 183/246/5 184/250/5
usemtl floor
f 1/251/5 2/252/5 4/253/5 3/254/5 54/255/5 26/256/5 42/257/5 17/258/5 50/259/5 22/260/5 38/261/5
f 4/262/5 2/147/5 106/157/5 148/263/5 120/264/5 136/265/5 111/266/5 145/267/5 117/268/5 133/269/5 80/270/5
usemtl top
f 193/271/2 194/272/2 196/273/2 195/274/2
