# Blender v2.91.0 OBJ File: ''
# www.blender.org
mtllib top.mtl
o Cube.002
v -103.271057 86.411583 -132.192871
v -103.271057 86.411407 132.192932
v -103.271057 94.300697 132.192932
v -103.271057 94.300873 -132.192871
v 103.271057 86.411407 132.192932
v 103.271057 94.300697 132.192932
v 103.271057 86.411583 -132.192871
v 103.271057 94.300873 -132.192871
vt 0.963875 0.000000
vt 0.963875 0.640026
vt 0.981941 0.640026
vt 0.981941 0.000000
vt 0.981934 0.500000
vt 0.981934 1.000000
vt 1.000000 1.000000
vt 1.000000 0.500000
vt 0.963875 0.640026
vt 0.963875 0.000000
vt 0.945808 0.000000
vt 0.945808 0.640026
vt 0.981934 0.000000
vt 0.981934 0.500000
vt 1.000000 0.500000
vt 1.000000 0.000000
vt 0.945816 0.640026
vt 0.945816 0.000000
vt 0.472908 0.000000
vt 0.472908 0.640026
vt 0.472908 0.640026
vt 0.472908 0.000000
vt 0.000000 0.000000
vt 0.000000 0.640026
vn -1.0000 0.0000 0.0000
vn 0.0000 0.0000 1.0000
vn 1.0000 0.0000 0.0000
vn 0.0000 0.0000 -1.0000
vn 0.0000 -1.0000 -0.0000
vn 0.0000 1.0000 0.0000
usemtl None.001
s 1
f 1/1/1 2/2/1 3/3/1 4/4/1
f 2/5/2 5/6/2 6/7/2 3/8/2
f 5/9/3 7/10/3 8/11/3 6/12/3
f 7/13/4 1/14/4 4/15/4 8/16/4
f 2/17/5 1/18/5 7/19/5 5/20/5
f 6/21/6 8/22/6 4/23/6 3/24/6
